<svg xmlns="http://www.w3.org/2000/svg" width="166" height="87" viewBox="0 0 166 87" fill="none">
    <g clip-path="url(#clip0_1_248)">
        <path d="M0 0V8.66044V43.3023V51.9628H8.2855H33.1419V77.9442V86.6047H41.4274H124.282H132.568V77.9442V51.9628H157.424H165.709V0H0Z" fill="white"/>
        <path d="M52.9769 33.7195V18.2827H60.747V33.7195H58.3077V20.6172H55.4158V33.7195H52.9769Z" fill="black"/>
        <path d="M67.7232 31.5877C67.7301 31.5877 67.7367 31.5894 67.7437 31.5928C67.7506 31.5959 67.7576 31.5977 67.7643 31.5977C68.0526 31.5911 68.2823 31.5301 68.4539 31.4151C68.6253 31.3001 68.7575 31.1494 68.85 30.9634C68.9428 30.7774 69.0024 30.5626 69.03 30.3191C69.0575 30.0755 69.0714 29.825 69.0714 29.568V22.4231C69.0714 22.1727 69.0591 21.9257 69.0352 21.6821C69.0114 21.4386 68.953 21.2221 68.8606 21.0326C68.7678 20.8431 68.6339 20.691 68.4592 20.576C68.2839 20.461 68.0423 20.4035 67.7334 20.4035C67.7129 20.4035 67.6957 20.4 67.6821 20.3934C67.394 20.4 67.1641 20.461 66.9924 20.576C66.8207 20.691 66.6905 20.8414 66.6013 21.0278C66.5122 21.2138 66.4538 21.4286 66.4266 21.6721C66.3991 21.9156 66.3852 22.1661 66.3852 22.4231V29.568C66.3852 29.8185 66.3971 30.0651 66.4213 30.309C66.4455 30.5525 66.5035 30.769 66.5963 30.9586C66.6887 31.1477 66.8227 31.3001 66.9977 31.4151C67.1727 31.5301 67.4142 31.5877 67.7232 31.5877ZM67.7232 18.0794C67.7232 18.0725 67.7268 18.0693 67.7334 18.0693C68.502 18.0693 69.1313 18.1857 69.6218 18.4192C70.1123 18.6527 70.4968 18.9673 70.7745 19.3632C71.0526 19.7588 71.2445 20.2206 71.3509 20.7485C71.4573 21.2761 71.5106 21.8311 71.5106 22.4131V29.578C71.5106 30.1666 71.4573 30.7251 71.3509 31.2527C71.2445 31.7806 71.0506 32.2424 70.7692 32.638C70.4882 33.0339 70.1021 33.3467 69.6116 33.5768C69.1211 33.8065 68.495 33.9218 67.7334 33.9218L67.7232 33.9117V33.9218C66.9549 33.9218 66.3252 33.805 65.8347 33.572C65.3439 33.3385 64.9581 33.0239 64.6771 32.6279C64.3957 32.232 64.2018 31.7702 64.0955 31.2426C63.989 30.7147 63.936 30.1601 63.936 29.578V22.4131C63.936 21.8241 63.989 21.2678 64.0955 20.7433C64.2018 20.2192 64.3974 19.7588 64.682 19.3632C64.9667 18.9673 65.3545 18.6527 65.845 18.4192C66.3355 18.1857 66.9616 18.0693 67.7232 18.0693V18.0794Z" fill="black"/>
        <path d="M79.9584 28.2482C79.9584 28.0386 79.9292 27.8422 79.8709 27.6597C79.8129 27.4768 79.7271 27.3178 79.6137 27.1827C79.5004 27.0472 79.3565 26.9408 79.1816 26.8629C79.0066 26.785 78.8024 26.7461 78.5694 26.7461H77.262V31.3844H78.5794C78.8057 31.3844 79.0049 31.3622 79.1766 31.3182C79.3476 31.2742 79.4938 31.1931 79.6137 31.0746C79.7337 30.9562 79.8229 30.794 79.8815 30.5876C79.9395 30.3811 79.9654 30.1158 79.9584 29.7908V28.2482ZM79.7837 21.9864C79.7837 21.7629 79.7592 21.5599 79.7115 21.3773C79.6634 21.1948 79.5882 21.0375 79.4851 20.9055C79.3824 20.7735 79.2482 20.672 79.0838 20.601C78.9191 20.53 78.7166 20.4943 78.4763 20.4943H77.262V24.554H78.3016C78.5831 24.554 78.8194 24.5218 79.0119 24.4577C79.2038 24.3932 79.3599 24.2935 79.4802 24.1581C79.5998 24.0229 79.684 23.8536 79.7321 23.6509C79.7801 23.4479 79.8003 23.204 79.794 22.92L79.7837 21.9864ZM82.3973 29.7503C82.3973 30.4608 82.3204 31.0664 82.166 31.5669C82.0116 32.0675 81.7766 32.477 81.4611 32.795C81.1452 33.113 80.7511 33.3448 80.2776 33.4902C79.804 33.6357 79.2448 33.7085 78.5999 33.7085H74.8231V18.2817H78.5486C79.1796 18.2817 79.7271 18.3614 80.19 18.5204C80.6534 18.6795 81.0355 18.9095 81.3375 19.2105C81.6394 19.5115 81.8641 19.8787 82.0115 20.3118C82.1594 20.7448 82.2329 21.2388 82.2329 21.7934V22.6969C82.2329 23.5019 82.1196 24.1414 81.8932 24.615C81.6669 25.0885 81.2964 25.3996 80.7816 25.5486C81.2824 25.684 81.6775 25.9868 81.9655 26.4569C82.2535 26.9273 82.3973 27.5242 82.3973 28.2482V29.7503Z" fill="black"/>
        <path d="M85.6996 33.7195V18.2827H92.3171V20.6172H88.1386V24.697H91.6069V27.0312H88.1386V31.3953H92.3171V33.7195H85.6996Z" fill="black"/>
        <path d="M100.343 22.058C100.343 21.5845 100.243 21.2259 100.045 20.9824C99.8455 20.7385 99.4954 20.6169 98.9949 20.6169H97.8318V26.0872H98.9019C99.4301 26.0872 99.8026 25.9687 100.018 25.7318C100.235 25.4952 100.343 25.0961 100.343 24.5342V22.058ZM102.792 24.5342C102.792 25.2786 102.703 25.8994 102.525 26.3966C102.346 26.894 102.091 27.2913 101.758 27.5893C101.425 27.8869 101.02 28.0968 100.543 28.2184C100.066 28.3403 99.53 28.4013 98.933 28.4013H97.8318V33.7192H95.3925V18.2827H98.9843C99.5607 18.2827 100.082 18.3468 100.549 18.4753C101.015 18.6039 101.415 18.8155 101.747 19.1096C102.08 19.4041 102.338 19.7914 102.519 20.2719C102.701 20.752 102.792 21.3475 102.792 22.058V24.5342Z" fill="black"/>
        <path d="M105.611 33.7195V18.2827H108.061V24.768H110.953V18.2827H113.392V33.7195H110.953V27.1022H108.061V33.7195H105.611Z" fill="black"/>
        <path d="M122.838 33.7195L122.93 23.5704L119.905 33.7195H117.054L117.085 18.2827H119.524L119.442 28.1882L122.231 18.2827H125.288V33.7195H122.838Z" fill="black"/>
        <path d="M135.742 28.8267V29.7402C135.742 30.2882 135.687 30.8141 135.577 31.3181C135.468 31.8221 135.272 32.2656 134.991 32.6477C134.709 33.0301 134.325 33.3364 133.838 33.5664C133.351 33.7961 132.73 33.9114 131.975 33.9114C131.968 33.9114 131.965 33.9149 131.965 33.9215C131.19 33.9215 130.557 33.8047 130.066 33.5712C129.576 33.3377 129.192 33.0232 128.914 32.6276C128.636 32.2316 128.444 31.7699 128.337 31.2423C128.231 30.7143 128.178 30.1597 128.178 29.5777V22.4124C128.178 21.8238 128.231 21.2675 128.337 20.743C128.444 20.2185 128.636 19.7584 128.914 19.3629C129.192 18.9669 129.576 18.6524 130.066 18.4188C130.557 18.1853 131.183 18.0687 131.945 18.0687L131.955 18.0586C132.723 18.0586 133.353 18.1753 133.843 18.4088C134.334 18.6423 134.719 18.9534 135.001 19.3424C135.282 19.7315 135.476 20.1797 135.582 20.6872C135.689 21.1947 135.742 21.7223 135.742 22.2703V23.1534H133.292V22.2808C133.292 22.0504 133.277 21.8238 133.246 21.6007C133.216 21.3773 133.153 21.176 133.061 20.9966C132.969 20.8175 132.835 20.672 132.66 20.5604C132.485 20.4485 132.253 20.3928 131.965 20.3928C131.663 20.3928 131.425 20.4503 131.25 20.5653C131.075 20.6803 130.939 20.831 130.844 21.017C130.747 21.203 130.685 21.4178 130.658 21.6613C130.63 21.9052 130.617 22.1588 130.617 22.4228V29.5676C130.617 29.8178 130.629 30.0648 130.653 30.3083C130.677 30.5518 130.736 30.7684 130.828 30.9578C130.92 31.1474 131.054 31.2998 131.229 31.4148C131.404 31.5298 131.646 31.5873 131.955 31.5873C132.236 31.5873 132.464 31.5364 132.639 31.4349C132.814 31.3334 132.949 31.1965 133.045 31.024C133.142 30.8515 133.207 30.6533 133.241 30.4302C133.276 30.2068 133.292 29.9737 133.292 29.7298V28.8267H135.742Z" fill="black"/>
        <path d="M143.377 27.4677C143.377 26.9062 143.269 26.507 143.053 26.2701C142.837 26.0332 142.464 25.9151 141.936 25.9151H140.866V31.3853H142.029C142.53 31.3853 142.88 31.2634 143.079 31.0199C143.277 30.7763 143.377 30.4178 143.377 29.9439V27.4677ZM145.827 29.9439C145.827 30.6544 145.736 31.2499 145.554 31.7304C145.372 32.2105 145.114 32.5982 144.782 32.8923C144.449 33.1867 144.049 33.398 143.583 33.5266C143.116 33.6551 142.595 33.7195 142.019 33.7195H138.427V18.2827H140.866V23.601H141.967C142.564 23.601 143.101 23.6619 143.578 23.7835C144.055 23.9055 144.46 24.115 144.792 24.413C145.125 24.7106 145.381 25.1079 145.559 25.6053C145.737 26.1028 145.827 26.7236 145.827 27.4677V29.9439Z" fill="black"/>
        <path d="M23.9322 34.0936L17.616 25.3393C16.8794 24.3183 16.5752 23.0866 16.6814 21.8943C16.7878 20.6984 17.3046 19.5443 18.2091 18.6827C18.3347 18.563 18.4678 18.4497 18.6074 18.3428C19.582 17.5976 20.7505 17.2965 21.8778 17.4146C22.9832 17.5306 24.0495 18.0475 24.8565 18.942C25.6635 18.0475 26.7298 17.5306 27.8352 17.4146C28.9626 17.2963 30.131 17.5977 31.1056 18.3428C31.2452 18.4496 31.3783 18.563 31.504 18.6827C32.4084 19.5443 32.9252 20.6984 33.0316 21.8943C33.1378 23.0866 32.8337 24.3183 32.0971 25.3393L24.8565 35.3749L23.9322 34.0936ZM19.4647 23.8805L24.8565 31.3537L30.2483 23.8805C30.6275 23.355 30.7842 22.7228 30.7299 22.1121C30.6759 21.505 30.4105 20.9161 29.9453 20.473C29.8754 20.4064 29.8059 20.3467 29.7371 20.2942C29.2393 19.9136 28.6406 19.7598 28.0618 19.8205C27.4863 19.8808 26.9305 20.1558 26.5147 20.6327C26.4527 20.7037 26.3955 20.7764 26.3437 20.8504L24.8566 22.9733L23.3693 20.8504C23.3176 20.7765 23.2603 20.7037 23.1984 20.6327C22.7825 20.1559 22.2267 19.8809 21.6512 19.8206C21.0724 19.7599 20.4737 19.9135 19.9759 20.2942C19.9071 20.3467 19.8376 20.4064 19.7677 20.473C19.3025 20.9161 19.0371 21.505 18.9831 22.1121C18.9288 22.7227 19.0855 23.3549 19.4647 23.8805Z" fill="black"/>
        <path d="M9.44546 42.0896H40.2674V9.87273H9.44546V42.0896ZM125.442 42.0896H156.264V9.87273H42.5873V42.0896H125.442ZM157.424 44.5146H125.442V79.1566H124.282H40.2674V44.5146H40.2674H7.12549V7.44775H40.2674H42.5873H158.584V44.5146H157.424ZM42.5873 76.7316H123.122V44.5146H42.5873V76.7316Z" fill="black"/>
        <path d="M57.9681 68.4451V61.8278H56.9698L56.9804 61.8382L54.572 68.4451H51.9681L54.8398 60.5492L52.164 53.0083H54.7779L57.052 59.4936H57.9681V53.0083H60.407V59.4936H61.3131L63.5976 53.0083H66.2012L63.515 60.5492L66.407 68.4451H63.7931L61.385 61.8382V61.8278H60.407V68.4451H57.9681Z" fill="black"/>
        <path d="M74.7624 68.4451L74.8548 58.296L71.829 68.4451H68.9788L69.0096 53.0083H71.4485L71.3663 62.9138L74.1552 53.0083H77.2119V68.4451H74.7624Z" fill="black"/>
        <path d="M85.5771 62.9748C85.5771 62.7652 85.5479 62.5688 85.4896 62.3862C85.4316 62.2033 85.3457 62.0446 85.2324 61.9092C85.1191 61.7737 84.9752 61.6674 84.8003 61.5895C84.6253 61.5119 84.4211 61.4727 84.1881 61.4727H82.8807V66.1109H84.198C84.4244 66.1109 84.6236 66.0891 84.7953 66.0448C84.9663 66.0007 85.1124 65.9197 85.2324 65.8012C85.3524 65.6831 85.4415 65.5206 85.5002 65.3141C85.5582 65.1077 85.5841 64.8423 85.5771 64.5174V62.9748ZM85.4025 56.7129C85.4025 56.4895 85.3779 56.2865 85.3302 56.1039C85.2821 55.9213 85.2069 55.7641 85.1038 55.6321C85.0011 55.5001 84.8668 55.3986 84.7025 55.3276C84.5378 55.2566 84.3353 55.2209 84.095 55.2209H82.8807V59.2806H83.9203C84.2017 59.2806 84.438 59.2487 84.6305 59.1842C84.8225 59.1198 84.9785 59.02 85.0988 58.8846C85.2185 58.7495 85.3027 58.5801 85.3507 58.3774C85.3988 58.1744 85.419 57.9306 85.4127 57.6465L85.4025 56.7129ZM88.016 64.4768C88.016 65.1874 87.9391 65.7929 87.7846 66.2935C87.6302 66.7944 87.3953 67.2035 87.0798 67.5215C86.7639 67.8395 86.3698 68.0713 85.8962 68.2168C85.4227 68.3623 84.8636 68.4351 84.2186 68.4351H80.4417V53.0083H84.1672C84.7982 53.0083 85.3457 53.088 85.8088 53.247C86.2721 53.406 86.6542 53.636 86.9561 53.937C87.258 54.2381 87.4827 54.6053 87.6302 55.0383C87.778 55.4713 87.8516 55.9653 87.8516 56.52V57.4234C87.8516 58.2285 87.7383 58.8679 87.5119 59.3415C87.2855 59.8151 86.915 60.1265 86.4004 60.2751C86.9011 60.4106 87.2961 60.7134 87.5842 61.1835C87.8722 61.6539 88.016 62.2508 88.016 62.9748V64.4768Z" fill="black"/>
        <path d="M96.7016 68.4451L96.794 58.296L93.7682 68.4451H90.918L90.9489 53.0083H93.3877L93.3056 62.9138L96.0944 53.0083H99.1511V68.4451H96.7016Z" fill="black"/>
        <path d="M104.583 57.15L104.83 68.4457H102.391V53.0093H105.551L107.609 62.3868L109.677 53.0093H112.827V68.4457H110.377L110.624 57.3021L108.669 66.5175H106.559L104.583 57.15Z" fill="black"/>
    </g>
    <defs>
        <clipPath id="clip0_1_248">
            <rect width="165.709" height="86.605" fill="white"/>
        </clipPath>
    </defs>
</svg>