
<svg width="889" height="374" viewBox="0 0 889 374" fill="none" xmlns="http://www.w3.org/2000/svg">
    <path d="M228.527 327.038C216.919 318.5 200.532 320.916 191.928 332.434C183.323 343.953 185.758 360.212 197.365 368.751C208.974 377.289 225.36 374.874 233.965 363.355C242.57 351.836 240.136 335.577 228.527 327.038Z" fill="#613EC7"/>
    <path d="M183.474 273.296C159.135 255.393 124.777 260.458 106.733 284.609C88.6904 308.762 93.795 342.854 118.136 360.757C142.475 378.66 176.833 373.595 194.876 349.444C212.92 325.292 207.814 291.199 183.474 273.296Z" fill="#FFBC0F"/>
    <path d="M33.1062 250.89C69.4141 277.597 120.666 270.041 147.582 234.014C174.497 197.988 166.882 147.132 130.573 120.425C94.2652 93.7184 43.0133 101.274 16.0984 137.301C-10.8165 173.328 -3.2019 224.184 33.1062 250.89Z" fill="#FE803C"/>
    <path d="M94.5283 124.247C119.111 142.328 153.812 137.213 172.035 112.82C190.258 88.4273 185.103 53.9951 160.52 35.9129C135.937 17.8309 101.236 22.9466 83.0131 47.3392C64.7896 71.7318 69.9455 106.165 94.5283 124.247Z" fill="#EA4B48"/>
    <path d="M196.365 46.8152C207.972 55.353 224.357 52.9375 232.961 41.42C241.566 29.9026 239.131 13.6445 227.525 5.10666C215.917 -3.43117 199.533 -1.01567 190.928 10.5018C182.323 22.0193 184.758 38.2773 196.365 46.8152Z" fill="#86B982"/>
    <path d="M346.735 183.265H291.627V199.483H328.471C325.164 214.283 312.883 224.675 292.887 224.675C268.167 224.675 252.107 207.513 252.107 185.312C252.107 162.797 268.482 145.635 291.785 145.635C306.27 145.635 318.551 152.877 324.22 163.112L339.807 154.137C330.518 138.549 312.726 128 291.785 128C258.72 128 234 153.507 234 185.155C234 216.803 258.405 242.31 292.729 242.31C325.007 242.31 346.735 220.896 346.735 190.823V183.265Z" fill="currentColor"/>
    <path d="M389.268 222.943V193.185H433.354V176.023H389.268V147.367H437.291V130.047H371.161V240.263H438.078V222.943H389.268Z" fill="currentColor"/>
    <path d="M528.655 130.047V204.836L476.697 130.047H462.526V240.263H480.633V165.473L532.592 240.263H546.762V130.047H528.655Z" fill="currentColor"/>
    <path d="M594.754 222.943V193.185H638.841V176.023H594.754V147.367H642.777V130.047H576.647V240.263H643.564V222.943H594.754Z" fill="currentColor"/>
    <path d="M704.698 242.31C727.686 242.31 743.746 230.028 743.746 209.875C743.746 187.989 725.325 182.321 707.06 176.495C691 171.457 684.86 167.835 684.86 159.333C684.86 150.988 691.63 145.635 702.179 145.635C714.46 145.635 721.388 152.248 725.325 161.065L740.597 152.248C733.669 137.605 720.286 128 702.179 128C683.6 128 666.753 139.494 666.753 159.805C666.753 180.589 683.442 186.887 700.605 192.083C716.98 197.121 725.639 200.428 725.639 210.19C725.639 218.22 719.499 224.675 705.171 224.675C690.213 224.675 681.71 217.275 677.774 206.096L662.187 215.228C668.012 231.603 682.97 242.31 704.698 242.31Z" fill="currentColor"/>
    <path d="M766.45 130.047V240.263H784.557V130.047H766.45Z" fill="currentColor"/>
    <path d="M849.603 242.31C872.591 242.31 888.651 230.028 888.651 209.875C888.651 187.989 870.229 182.321 851.965 176.495C835.905 171.457 829.764 167.835 829.764 159.333C829.764 150.988 836.534 145.635 847.084 145.635C859.365 145.635 866.293 152.248 870.229 161.065L885.502 152.248C878.574 137.605 865.191 128 847.084 128C828.504 128 811.657 139.494 811.657 159.805C811.657 180.589 828.347 186.887 845.509 192.083C861.884 197.121 870.544 200.428 870.544 210.19C870.544 218.22 864.403 224.675 850.075 224.675C835.117 224.675 826.615 217.275 822.679 206.096L807.091 215.228C812.917 231.603 827.875 242.31 849.603 242.31Z" fill="currentColor"/>
</svg>
