<svg width="128" height="56" viewBox="0 0 128 56" fill="none" xmlns="http://www.w3.org/2000/svg">
<path d="M33.7267 48.661C32.021 47.4019 29.613 47.7582 28.3486 49.4567C27.0841 51.1552 27.4419 53.553 29.1476 54.812C30.8535 56.0711 33.2613 55.7149 34.5259 54.0164C35.7903 52.3178 35.4326 49.9202 33.7267 48.661Z" fill="#433298"/>
<path d="M27.1029 40.7363C23.5262 38.0962 18.4774 38.8432 15.8259 42.4046C13.1746 45.9662 13.9247 50.9935 17.5015 53.6336C21.0782 56.2736 26.127 55.5267 28.7783 51.9653C31.4298 48.4037 30.6795 43.3763 27.1029 40.7363Z" fill="#FFBC0F"/>
<path d="M5.00842 37.4318C10.3438 41.3701 17.8751 40.2559 21.8303 34.9432C25.7854 29.6306 24.6664 22.1312 19.331 18.1929C13.9956 14.2547 6.46425 15.3689 2.50918 20.6815C-1.4459 25.9942 -0.326957 33.4936 5.00842 37.4318Z" fill="#FE803C"/>
<path d="M14.0349 18.7566C17.6473 21.4229 22.7466 20.6686 25.4243 17.0716C28.1022 13.4745 27.3446 8.39704 23.7322 5.73059C20.1198 3.06416 15.0206 3.81854 12.3428 7.41555C9.6649 11.0126 10.4225 16.0901 14.0349 18.7566Z" fill="#EA5F47"/>
<path d="M29.0001 7.33857C30.7059 8.59758 33.1135 8.24139 34.3779 6.54298C35.6424 4.84458 35.2846 2.44711 33.579 1.1881C31.8733 -0.0709131 29.4657 0.285285 28.2012 1.98369C26.9368 3.68209 27.2945 6.07955 29.0001 7.33857Z" fill="#4EA99C"/>
<path d="M48.8476 25.3639V26.4608C48.8476 28.6546 48.1239 30.4523 46.6766 31.8539C45.2293 33.2403 43.3402 33.9335 41.0092 33.9335C38.5412 33.9335 36.4997 33.1337 34.8848 31.534C33.2852 29.9344 32.4854 27.9691 32.4854 25.6381C32.4854 23.3224 33.2852 21.3648 34.8848 19.7651C36.4997 18.1502 38.4955 17.3428 40.8721 17.3428C42.3651 17.3428 43.7287 17.6856 44.9627 18.3711C46.1967 19.0567 47.1565 19.9784 47.8421 21.1362L45.5797 22.4388C45.1531 21.6771 44.5209 21.0677 43.6829 20.6106C42.845 20.1384 41.9081 19.9022 40.8721 19.9022C39.1963 19.9022 37.8175 20.4507 36.7359 21.5476C35.6542 22.6445 35.1134 24.0156 35.1134 25.661C35.1134 27.3064 35.6542 28.6699 36.7359 29.7515C37.8328 30.8332 39.2648 31.374 41.0321 31.374C42.4489 31.374 43.5992 31.0465 44.4828 30.3914C45.3816 29.7211 45.9529 28.8298 46.1967 27.7177H40.8493V25.3639H48.8476Z" fill="white"/>
<path d="M55.0207 31.1227H62.1049V33.6364H52.3927V17.6399H61.9906V20.1536H55.0207V24.3127H61.4193V26.8036H55.0207V31.1227Z" fill="white"/>
<path d="M75.2512 17.6399H77.8792V33.6364H75.8225L68.2812 22.7816V33.6364H65.6532V17.6399H67.7099L75.2512 28.4947V17.6399Z" fill="white"/>
<path d="M84.8446 31.1227H91.9288V33.6364H82.2166V17.6399H91.8146V20.1536H84.8446V24.3127H91.2433V26.8036H84.8446V31.1227Z" fill="white"/>
<path d="M100.802 33.9335C99.263 33.9335 97.9528 33.5831 96.8712 32.8823C95.8047 32.1815 95.0582 31.2217 94.6317 30.0029L96.894 28.6775C97.5339 30.4752 98.8593 31.374 100.87 31.374C101.861 31.374 102.599 31.1836 103.087 30.8027C103.59 30.4066 103.841 29.8963 103.841 29.2716C103.841 28.6165 103.574 28.1214 103.041 27.7862C102.508 27.4358 101.564 27.055 100.208 26.6436C99.4459 26.4151 98.8288 26.2018 98.3566 26.0038C97.8843 25.8057 97.3815 25.5315 96.8483 25.1811C96.3303 24.8155 95.9418 24.366 95.6829 23.8328C95.4239 23.2996 95.2944 22.675 95.2944 21.9589C95.2944 20.5421 95.7971 19.4223 96.8026 18.5996C97.8081 17.7617 99.0193 17.3428 100.436 17.3428C101.716 17.3428 102.836 17.6551 103.795 18.2797C104.755 18.9043 105.494 19.7651 106.012 20.862L103.795 22.1417C103.125 20.6487 102.005 19.9022 100.436 19.9022C99.6744 19.9022 99.065 20.085 98.6079 20.4507C98.1509 20.8011 97.9224 21.281 97.9224 21.8904C97.9224 22.4845 98.1509 22.9568 98.6079 23.3072C99.0802 23.6424 99.9258 24.0004 101.145 24.3813C101.754 24.5793 102.196 24.7317 102.47 24.8383C102.759 24.9297 103.156 25.0821 103.658 25.2954C104.176 25.5086 104.565 25.7219 104.824 25.9352C105.083 26.1485 105.357 26.4151 105.646 26.735C105.951 27.055 106.164 27.4206 106.286 27.832C106.408 28.2433 106.469 28.708 106.469 29.2259C106.469 30.6732 105.944 31.8235 104.892 32.6766C103.856 33.5145 102.493 33.9335 100.802 33.9335Z" fill="white"/>
<path d="M109.764 17.6399H112.392V33.6364H109.764V17.6399Z" fill="white"/>
<path d="M121.833 33.9335C120.294 33.9335 118.984 33.5831 117.902 32.8823C116.836 32.1815 116.089 31.2217 115.663 30.0029L117.925 28.6775C118.565 30.4752 119.891 31.374 121.902 31.374C122.892 31.374 123.631 31.1836 124.118 30.8027C124.621 30.4066 124.872 29.8963 124.872 29.2716C124.872 28.6165 124.606 28.1214 124.072 27.7862C123.539 27.4358 122.595 27.055 121.239 26.6436C120.477 26.4151 119.86 26.2018 119.388 26.0038C118.915 25.8057 118.413 25.5315 117.88 25.1811C117.362 24.8155 116.973 24.366 116.714 23.8328C116.455 23.2996 116.326 22.675 116.326 21.9589C116.326 20.5421 116.828 19.4223 117.834 18.5996C118.839 17.7617 120.05 17.3428 121.467 17.3428C122.747 17.3428 123.867 17.6551 124.827 18.2797C125.786 18.9043 126.525 19.7651 127.043 20.862L124.827 22.1417C124.156 20.6487 123.037 19.9022 121.467 19.9022C120.706 19.9022 120.096 20.085 119.639 20.4507C119.182 20.8011 118.954 21.281 118.954 21.8904C118.954 22.4845 119.182 22.9568 119.639 23.3072C120.111 23.6424 120.957 24.0004 122.176 24.3813C122.785 24.5793 123.227 24.7317 123.501 24.8383C123.791 24.9297 124.187 25.0821 124.689 25.2954C125.207 25.5086 125.596 25.7219 125.855 25.9352C126.114 26.1485 126.388 26.4151 126.678 26.735C126.982 27.055 127.196 27.4206 127.317 27.832C127.439 28.2433 127.5 28.708 127.5 29.2259C127.5 30.6732 126.975 31.8235 125.924 32.6766C124.888 33.5145 123.524 33.9335 121.833 33.9335Z" fill="white"/>
</svg>
