<svg width="15" height="15" viewBox="0 0 15 15" fill="none" xmlns="http://www.w3.org/2000/svg">
<path d="M13.7279 13.7279C14.1184 13.3374 14.1184 12.7042 13.7279 12.3137L8.42464 7.01042L13.728 1.70711C14.1185 1.31658 14.1185 0.683419 13.728 0.292895C13.3374 -0.0976292 12.7043 -0.0976297 12.3137 0.292895L7.01042 5.59621L1.70711 0.292893C1.31658 -0.0976311 0.683418 -0.0976311 0.292894 0.292893C-0.0976309 0.683417 -0.0976313 1.31658 0.292893 1.70711L5.59621 7.01042L0.292921 12.3137C-0.0976027 12.7042 -0.0976032 13.3374 0.292921 13.7279C0.683446 14.1184 1.31661 14.1184 1.70713 13.7279L7.01042 8.42464L12.3137 13.7279C12.7042 14.1184 13.3374 14.1184 13.7279 13.7279Z" fill="#BBBBC9"/>
</svg>
