<svg width="48" height="48" viewBox="0 0 48 48" fill="none" xmlns="http://www.w3.org/2000/svg">
<rect width="48" height="48" rx="12" fill="#FB5555"/>
<path d="M30.7279 30.7279C31.1184 30.3374 31.1184 29.7042 30.7279 29.3137L25.4246 24.0104L30.728 18.7071C31.1185 18.3166 31.1185 17.6834 30.728 17.2929C30.3374 16.9024 29.7043 16.9024 29.3137 17.2929L24.0104 22.5962L18.7071 17.2929C18.3166 16.9024 17.6834 16.9024 17.2929 17.2929C16.9024 17.6834 16.9024 18.3166 17.2929 18.7071L22.5962 24.0104L17.2929 29.3137C16.9024 29.7042 16.9024 30.3374 17.2929 30.7279C17.6834 31.1184 18.3166 31.1184 18.7071 30.7279L24.0104 25.4246L29.3137 30.7279C29.7042 31.1184 30.3374 31.1184 30.7279 30.7279Z" fill="white"/>
</svg>
