<svg xmlns="http://www.w3.org/2000/svg" width="152" height="30" viewBox="0 0 152 30" fill="none">
    <g clip-path="url(#clip0_43_1106)">
        <path fill-rule="evenodd" clip-rule="evenodd" d="M108.742 23.8372L109.916 17.8488C110.269 16.1047 110.621 14.3605 110.915 12.5581C111.267 10.814 111.62 9.06977 111.913 7.26744H114.615V7.5C113.852 11.3372 112.383 18.7791 111.444 23.7209C111.385 23.8953 111.444 24.0698 111.561 24.2442C111.678 24.3605 111.855 24.4767 112.031 24.4767H117.963C118.374 24.4767 118.727 24.186 118.785 23.7791C119.843 18.4302 121.194 11.2791 122.016 7.26744H123.425C123.484 7.26744 123.543 7.26744 123.602 7.32558C123.66 7.32558 123.719 7.38372 123.778 7.44186C123.954 7.67442 124.189 7.90698 124.365 8.13954C124.424 8.19767 124.424 8.25581 124.424 8.31395V8.48837C124.013 10.6395 123.543 12.7907 123.132 14.9419C122.838 16.5116 122.016 20.6977 121.428 23.7209C121.37 23.8953 121.428 24.0698 121.546 24.2442C121.663 24.4186 121.84 24.4767 122.016 24.4767H128.007C128.418 24.4767 128.77 24.186 128.829 23.7791C129.416 20.814 130.239 16.5116 130.532 15C130.885 12.9651 131.355 10.9302 131.707 8.89535C131.766 8.66279 131.766 8.43023 131.707 8.25581C131.648 8.02326 131.531 7.84884 131.413 7.67442C131.002 7.15116 130.532 6.62791 130.121 6.10465C130.004 5.93023 129.828 5.81395 129.593 5.69767C129.416 5.5814 129.181 5.5814 128.947 5.5814H105.335C105.159 5.5814 104.983 5.63953 104.865 5.75581C104.748 5.87209 104.63 6.04651 104.572 6.22093C104.16 8.37209 103.749 10.5814 103.279 12.7326C102.868 14.9419 101.811 20.2326 101.106 23.7791C101.047 23.9535 101.106 24.1279 101.224 24.3023C101.341 24.4767 101.517 24.5349 101.694 24.5349H107.685C108.272 24.5349 108.624 24.2442 108.742 23.8372ZM84.1906 24.5349H88.8306C89.2418 24.5349 89.5354 24.4186 90.0053 24.186C90.7689 23.8372 91.5324 23.4884 92.296 23.1395C92.4134 23.0814 92.5897 23.1395 92.6484 23.1977L93.6469 24.3605C93.7056 24.4186 93.7643 24.4767 93.8818 24.4767H97.6996C97.8758 24.4767 98.052 24.4186 98.1695 24.3023C98.2869 24.186 98.4044 24.0116 98.4631 23.8372C99.5791 17.9651 100.754 12.093 101.87 6.22093V5.98837C101.87 5.93023 101.811 5.81395 101.752 5.75581C101.694 5.69767 101.635 5.63954 101.576 5.5814C101.517 5.52326 101.4 5.52326 101.341 5.52326H87.9496C87.7147 5.52326 87.421 5.5814 87.186 5.63953C86.9511 5.75581 86.7162 5.87209 86.4812 6.04651C85.8939 6.56977 85.2478 7.09302 84.6604 7.61628C84.4255 7.7907 84.308 7.96512 84.1318 8.19767C84.0144 8.43023 83.8969 8.66279 83.8382 8.89535C83.0159 12.9651 82.2523 17.093 81.43 21.1628C81.43 21.3954 81.3713 21.6279 81.43 21.8023C81.4888 22.0349 81.6062 22.2093 81.7237 22.3837C82.1348 22.907 82.546 23.4302 83.0159 23.9535C83.1921 24.1279 83.3095 24.2442 83.5445 24.3605C83.7794 24.4767 83.9556 24.5349 84.1906 24.5349ZM88.7131 22.2093C89.5942 17.6744 90.4752 13.1395 91.3562 8.60465C91.3562 8.48837 91.415 8.43023 91.4737 8.37209C91.5324 8.31395 91.5912 8.25581 91.6499 8.19767C91.9436 7.96512 92.2372 7.73256 92.5309 7.5C92.5896 7.44186 92.7071 7.38372 92.7659 7.38372C92.8833 7.38372 92.9421 7.32558 93.0595 7.32558H94.4104C93.4707 12.0349 92.5896 16.8023 91.6499 21.5116L89.2418 22.5581C89.1243 22.6163 89.0068 22.6163 88.9481 22.5C88.7132 22.4419 88.7131 22.3256 88.7131 22.2093ZM2.78402 24.5349H7.42408C7.83522 24.5349 8.12889 24.4186 8.59877 24.186C9.36233 23.8372 10.1259 23.4884 10.8894 23.1395C11.0069 23.0814 11.1831 23.1395 11.2418 23.1977L12.2403 24.3605C12.2991 24.4186 12.3578 24.4767 12.4753 24.4767H16.293C16.4692 24.4767 16.6455 24.4186 16.7629 24.3023C16.8804 24.186 16.9979 24.0116 17.0566 23.8372C18.1726 17.9651 19.3473 12.093 20.4632 6.22093V5.98837C20.4632 5.93023 20.4045 5.81395 20.3457 5.75581L20.1695 5.5814C20.1108 5.52326 19.9933 5.52326 19.9346 5.52326H6.54305C6.30811 5.52326 6.01444 5.5814 5.7795 5.63953C5.54456 5.75581 5.30962 5.87209 5.07468 6.04651C4.48733 6.56977 3.84125 7.09302 3.2539 7.61628C3.01896 7.7907 2.90149 7.96512 2.72528 8.19767C2.60781 8.43023 2.49035 8.66279 2.43161 8.89535C1.60932 12.9651 0.845768 17.093 0.0234799 21.1628C0.0234799 21.3954 -0.035255 21.6279 0.0234799 21.8023C0.0822148 22.0349 0.199685 22.2093 0.317154 22.3837C0.728298 22.907 1.13944 23.4302 1.60932 23.9535C1.78553 24.1279 1.903 24.2442 2.13794 24.3605C2.31414 24.4767 2.54908 24.5349 2.78402 24.5349ZM7.3066 22.2093C8.18763 17.6744 9.06865 13.1395 9.94967 8.60465C9.94967 8.48837 10.0084 8.43023 10.0671 8.37209L10.2433 8.19767C10.537 7.96512 10.8307 7.73256 11.1244 7.5C11.1831 7.44186 11.3006 7.38372 11.3593 7.38372C11.4768 7.38372 11.5355 7.32558 11.653 7.32558H13.0039C12.0641 12.0349 11.1831 16.8023 10.2433 21.5116L7.83522 22.5581C7.71775 22.6163 7.60028 22.6163 7.54154 22.5C7.30661 22.4419 7.24787 22.3256 7.3066 22.2093ZM72.4436 5.5814H74.4406C74.6755 4.30233 74.9105 3.02326 75.1454 1.74419H73.3834C73.2659 1.74419 73.2071 1.74419 73.0897 1.80233C73.0309 1.86047 72.9135 1.86047 72.8547 1.9186C72.5611 2.15116 72.2674 2.38372 71.9737 2.61628C71.915 2.67442 71.8562 2.73256 71.7975 2.7907C71.7388 2.84884 71.7388 2.96512 71.7388 3.02326C71.5626 3.83721 71.4451 4.65116 71.2689 5.52326H71.4451C71.7975 5.5814 72.0912 5.5814 72.4436 5.5814ZM74.0294 7.61628H70.9165C70.2117 11.2791 69.5068 14.8837 68.802 18.4884C68.0972 22.093 67.3924 25.7558 66.6876 29.3605C66.6288 29.5349 66.5701 29.7093 66.3939 29.8256C66.2764 29.9419 66.1002 30 65.924 30H59.8743C59.7569 30 59.6981 30 59.6394 29.9419C59.5807 29.8837 59.4632 29.8256 59.4044 29.7674C59.3457 29.7093 59.287 29.593 59.287 29.5349V29.3023C60.1093 25 60.9903 20.6395 61.8126 16.3372C62.6349 12.0349 63.5159 7.67442 64.3382 3.37209C64.3969 3.13954 64.4557 2.84884 64.6319 2.67442C64.7493 2.44186 64.9255 2.26744 65.1017 2.09302C65.6891 1.56977 66.3352 1.04651 66.9812 0.523256C67.2162 0.348837 67.3924 0.232558 67.6273 0.116279C67.8623 0.0581395 68.1559 0 68.3909 0H82.1936C82.2523 0 82.3698 0 82.4285 0.0581395C82.4873 0.116279 82.546 0.174419 82.6047 0.232558C82.6635 0.290698 82.7222 0.348837 82.7222 0.465116V0.697675C81.9586 4.53488 81.1951 8.43023 80.4315 12.2674C79.668 16.1047 78.9632 20 78.1996 23.8372C78.1409 24.0116 78.0821 24.186 77.9059 24.3023C77.7885 24.4186 77.6123 24.4767 77.4361 24.4767H74.0294C73.7945 24.4767 73.5596 24.4186 73.3834 24.3605C73.2071 24.2442 73.0309 24.1279 72.8547 23.9535C72.4436 23.4302 71.9737 22.907 71.5626 22.3837C71.4451 22.2093 71.3276 22.0349 71.2689 21.8023C71.2102 21.6279 71.2102 21.3954 71.2689 21.1628C71.7388 18.8954 72.1499 16.6279 72.6198 14.3605C73.1484 12.1512 73.6183 9.88372 74.0294 7.61628ZM133.704 12.6744C133.939 11.3953 134.174 10.1744 134.409 8.89535C134.468 8.66279 134.526 8.43023 134.644 8.19767C134.761 7.96512 134.938 7.7907 135.114 7.61628C135.407 7.38372 135.701 7.09302 136.053 6.86047C136.347 6.62791 136.641 6.33721 136.993 6.10465C137.228 5.93023 137.404 5.81395 137.639 5.69767C137.874 5.63954 138.168 5.5814 138.403 5.5814H149.151C149.386 5.5814 149.621 5.63954 149.797 5.69767C149.974 5.81395 150.15 5.93023 150.326 6.10465C150.737 6.56977 151.09 7.03488 151.442 7.44186C151.501 7.5 151.559 7.55814 151.618 7.61628C151.736 7.7907 151.853 7.90698 151.912 8.0814C151.971 8.25581 152.029 8.43023 151.971 8.60465C151.794 10.4651 151.09 13.1977 150.678 15.1163C150.678 15.2907 150.561 15.4651 150.444 15.5814C150.326 15.6977 150.15 15.7558 149.915 15.7558H140.459C140.047 18.0233 139.578 20.407 139.108 22.6744H140.635C140.694 22.6744 140.752 22.6163 140.811 22.6163C140.87 22.6163 140.87 22.5581 140.928 22.5581C141.222 22.2674 141.516 22.0349 141.868 21.7442C141.927 21.686 141.927 21.6279 141.986 21.5698C141.986 21.5116 142.044 21.4535 142.044 21.3953C142.221 20.3488 142.456 19.3605 142.632 18.314C142.691 18.1395 142.749 17.9651 142.925 17.8488C143.043 17.7326 143.219 17.6744 143.395 17.6744H149.445C149.562 17.6744 149.621 17.6744 149.68 17.7326C149.739 17.7907 149.797 17.8488 149.856 17.907C149.915 17.9651 149.974 18.0233 149.974 18.1395V18.3721C149.797 19.3023 149.621 20.3488 149.386 21.2791C149.328 21.5116 149.21 21.686 149.093 21.8605C148.975 22.0349 148.799 22.2093 148.623 22.3837C147.977 22.907 147.389 23.4302 146.743 23.8953C146.567 24.0698 146.332 24.186 146.097 24.3023C145.862 24.4186 145.627 24.4186 145.334 24.4186H139.343C137.757 24.4767 136.171 24.4186 134.585 24.4186C134.35 24.4186 134.174 24.3605 133.939 24.3023C133.763 24.186 133.587 24.0698 133.41 23.8953C133.175 23.6628 132.999 23.3721 132.764 23.1395C132.529 22.907 132.353 22.6163 132.118 22.3837C132.001 22.2093 131.883 22.0349 131.825 21.8023C131.766 21.6279 131.766 21.3954 131.825 21.1628C132.118 19.7674 132.412 18.314 132.647 16.9186C133.117 15.5233 133.41 14.1279 133.704 12.6744ZM141.868 8.66279C141.516 10.4651 141.163 12.3256 140.811 14.1279H143.337C143.395 14.1279 143.454 14.1279 143.454 14.0698C143.493 14.031 143.513 13.9922 143.513 13.9535C143.924 11.7442 144.335 9.53488 144.805 7.32558H143.395C143.337 7.32558 143.219 7.32558 143.16 7.38372C143.102 7.44186 143.043 7.44186 142.984 7.5C142.749 7.67442 142.514 7.84884 142.338 8.02326C142.279 8.0814 142.221 8.13954 142.162 8.19767C142.103 8.25581 142.044 8.31395 141.986 8.37209C141.927 8.43023 141.927 8.48837 141.927 8.54651C141.927 8.54651 141.927 8.60465 141.868 8.66279C141.868 8.62403 141.868 8.62403 141.868 8.66279ZM42.2539 12.7326C42.665 10.5814 43.0761 8.37209 43.546 6.22093C43.6048 6.04651 43.6635 5.87209 43.8397 5.75581C43.9572 5.63953 44.1334 5.5814 44.3096 5.5814H57.8186C58.0535 5.5814 58.2885 5.63954 58.4647 5.69767C58.6409 5.81395 58.8171 5.93023 58.9933 6.10465C59.4044 6.62791 59.8156 7.15116 60.2855 7.67442C60.4029 7.84884 60.5204 8.02326 60.5791 8.25581C60.6379 8.48837 60.6379 8.66279 60.5791 8.89535C60.168 10.9302 59.7569 12.9651 59.4044 15C58.9933 17.0349 58.5822 19.0698 58.2297 21.1047C58.171 21.3372 58.1123 21.6279 57.9361 21.8023C57.8186 22.0349 57.6424 22.2093 57.4662 22.3837C56.8201 22.907 56.2328 23.4302 55.5867 23.8953C55.3517 24.0698 55.1168 24.186 54.8819 24.3023C54.6469 24.4186 54.412 24.4186 54.1183 24.4186H47.4225C47.1289 26.0465 46.7764 27.6744 46.4828 29.3605C46.424 29.5349 46.3653 29.7093 46.1891 29.8256C46.0716 29.9419 45.8954 30 45.7192 30H39.6695C39.5521 30 39.4933 30 39.4346 29.9419C39.3759 29.8837 39.2584 29.8256 39.1996 29.7674C39.1409 29.7093 39.0822 29.593 39.0822 29.5349C39.0822 29.4767 39.0234 29.3605 39.0822 29.2442C39.6108 26.4535 40.1981 23.7209 40.668 20.9302C41.1966 18.314 41.7253 15.5233 42.2539 12.7326ZM48.7147 17.8488C48.421 19.4767 48.0686 21.1047 47.7749 22.7907H49.1258C49.2433 22.7907 49.302 22.7907 49.4195 22.7326C49.4783 22.7326 49.5957 22.6744 49.6545 22.6163C49.9481 22.3837 50.1831 22.1512 50.4767 21.9186L50.653 21.7442C50.7117 21.686 50.7117 21.5698 50.7704 21.5116C51.1816 19.3605 51.5927 17.2093 52.0039 15.0581C52.415 12.907 52.8261 10.7558 53.296 8.60465V8.43023C53.296 8.37209 53.2373 8.31395 53.2373 8.25581C53.0611 8.02326 52.8261 7.7907 52.6499 7.55814C52.5912 7.5 52.5325 7.44186 52.4737 7.44186C52.415 7.44186 52.3563 7.38372 52.2975 7.38372H50.8292C50.4767 9.12791 50.1243 10.9302 49.8307 12.6744C49.4195 14.3605 49.0671 16.1047 48.7147 17.8488ZM21.9903 13.1977C22.4602 10.8721 22.8713 8.54651 23.3412 6.22093C23.3412 6.04651 23.4587 5.87209 23.5762 5.75581C23.6936 5.63953 23.8698 5.5814 24.1048 5.5814H37.6138C37.8487 5.5814 38.0837 5.63954 38.2599 5.69767C38.4361 5.81395 38.6123 5.93023 38.7885 6.10465C39.0234 6.33721 39.1996 6.62791 39.4346 6.86047C39.6695 7.09302 39.8457 7.38372 40.0807 7.61628C40.1981 7.7907 40.3156 7.96512 40.3743 8.19767C40.4331 8.43023 40.4331 8.60465 40.3743 8.83721C39.9632 10.8721 39.5521 12.907 39.1996 14.9419C38.8472 16.9767 38.3774 19.0116 38.0249 21.0465C37.9662 21.2791 37.9075 21.5698 37.7313 21.7442C37.6138 21.9767 37.4376 22.1512 37.2027 22.3256C36.5566 22.8488 35.9692 23.3721 35.3231 23.8372C35.0882 24.0116 34.8533 24.1279 34.6183 24.2442C34.3834 24.3605 34.1484 24.3605 33.8548 24.3605H27.159C26.8653 25.9884 26.5129 27.6163 26.2192 29.3023C26.1605 29.4767 26.1018 29.6512 25.9256 29.7674C25.8081 29.8837 25.6319 29.9419 25.4557 29.9419H19.406C19.2885 29.9419 19.2298 29.9419 19.1711 29.8837C19.1123 29.8256 19.0536 29.7674 18.9948 29.7093C18.9361 29.6512 18.8774 29.5349 18.8774 29.4767V29.186C19.406 26.5116 19.9346 23.7791 20.4632 21.1047C20.9331 18.6047 21.4617 15.8721 21.9903 13.1977ZM29.0385 15.0581C28.8036 16.3372 28.5099 17.6163 28.275 18.8953C28.04 20.1744 27.8051 21.4535 27.5701 22.7326H28.921C29.0385 22.7326 29.0972 22.7326 29.2147 22.6744C29.2735 22.6163 29.3909 22.6163 29.4497 22.5581C29.7433 22.3256 30.037 22.093 30.3307 21.8605L30.5069 21.686C30.5656 21.6279 30.5656 21.5116 30.5656 21.4535C30.9768 19.3023 31.3879 17.1512 31.7991 15C32.2102 12.8488 32.6213 10.6977 33.0912 8.54651V8.37209C33.0912 8.31395 33.0325 8.25581 33.0325 8.19767C32.8563 7.96512 32.6213 7.73256 32.4451 7.5C32.3864 7.44186 32.3277 7.38372 32.3277 7.38372C32.2689 7.38372 32.2102 7.32558 32.1515 7.32558H30.6831C30.4481 8.60465 30.1545 9.94186 29.9195 11.2209C29.5671 12.5 29.2735 13.7791 29.0385 15.0581Z" fill="black"/>
    </g>
    <defs>
        <clipPath id="clip0_43_1106">
            <rect width="152" height="30" fill="white"/>
        </clipPath>
    </defs>
</svg>