<svg xmlns="http://www.w3.org/2000/svg" width="130" height="55" viewBox="0 0 103 43" fill="none">
    <path d="M26.2169 37.516C24.8853 36.5365 23.0055 36.8137 22.0184 38.1349C21.0313 39.4563 21.3106 41.3215 22.6422 42.301C23.9738 43.2805 25.8536 43.0034 26.8407 41.6821C27.8278 40.3607 27.5485 38.4956 26.2169 37.516Z" fill="#433298"/>
    <path d="M21.0458 31.3514C18.2537 29.2977 14.3123 29.8787 12.2424 32.6492C10.1727 35.4199 10.7583 39.3308 13.5505 41.3845C16.3426 43.4383 20.284 42.8572 22.3538 40.0867C24.4236 37.3161 23.8379 33.4052 21.0458 31.3514Z" fill="#FFBC0F"/>
    <path d="M3.79784 28.7807C7.9629 31.8444 13.8423 30.9776 16.9299 26.8447C20.0174 22.7119 19.1439 16.878 14.9788 13.8143C10.8137 10.7507 4.93433 11.6175 1.8468 15.7503C-1.24074 19.8832 -0.367231 25.7171 3.79784 28.7807Z" fill="#FE803C"/>
    <path d="M10.8446 14.2529C13.6646 16.3271 17.6453 15.7403 19.7357 12.9421C21.8262 10.1439 21.2348 6.19399 18.4147 4.1197C15.5947 2.04542 11.614 2.63227 9.52359 5.43047C7.43309 8.22866 8.02454 12.1786 10.8446 14.2529Z" fill="#EA5F47"/>
    <path d="M22.527 5.37039C23.8586 6.34981 25.7381 6.07272 26.7252 4.75149C27.7123 3.43027 27.433 1.56522 26.1015 0.585809C24.7699 -0.393607 22.8904 -0.116512 21.9033 1.20471C20.9162 2.52594 21.1955 4.39097 22.527 5.37039Z" fill="#4EA99C"/>
    <path d="M39.6982 21.0679V21.9381C39.6982 23.6787 39.1241 25.1049 37.9758 26.2169C36.8275 27.3168 35.3288 27.8668 33.4795 27.8668C31.5214 27.8668 29.9017 27.2322 28.6205 25.9631C27.3514 24.694 26.7168 23.1347 26.7168 21.2854C26.7168 19.4482 27.3514 17.8951 28.6205 16.6259C29.9017 15.3447 31.4851 14.7041 33.3707 14.7041C34.5552 14.7041 35.637 14.9761 36.616 15.52C37.5951 16.0639 38.3565 16.7951 38.9004 17.7137L37.1055 18.7472C36.7671 18.1428 36.2655 17.6594 35.6007 17.2968C34.9359 16.9221 34.1926 16.7347 33.3707 16.7347C32.0411 16.7347 30.9472 17.1698 30.0891 18.0401C29.2309 18.9104 28.8018 19.9982 28.8018 21.3036C28.8018 22.609 29.2309 23.6907 30.0891 24.5489C30.9593 25.4071 32.0955 25.8362 33.4976 25.8362C34.6217 25.8362 35.5342 25.5763 36.2353 25.0566C36.9484 24.5247 37.4017 23.8177 37.5951 22.9353H33.3525V21.0679H39.6982Z" fill="white"/>
    <path d="M44.5958 25.6367H50.2162V27.6311H42.5108V14.9398H50.1256V16.9341H44.5958V20.2339H49.6723V22.2101H44.5958V25.6367Z" fill="white"/>
    <path d="M60.6462 14.9398H62.7312V27.6311H61.0994L55.1164 19.0191V27.6311H53.0314V14.9398H54.6631L60.6462 23.5517V14.9398Z" fill="white"/>
    <path d="M68.2574 25.6367H73.8778V27.6311H66.1724V14.9398H73.7872V16.9341H68.2574V20.2339H73.3339V22.2101H68.2574V25.6367Z" fill="white"/>
    <path d="M80.9174 27.8668C79.6966 27.8668 78.6571 27.5888 77.799 27.0328C76.9529 26.4768 76.3606 25.7153 76.0222 24.7484L77.8171 23.6968C78.3247 25.123 79.3763 25.8362 80.9718 25.8362C81.7574 25.8362 82.3436 25.6851 82.7304 25.3829C83.1293 25.0687 83.3287 24.6637 83.3287 24.1682C83.3287 23.6484 83.1172 23.2556 82.6942 22.9897C82.2711 22.7117 81.5217 22.4095 80.446 22.0832C79.8416 21.9019 79.3521 21.7327 78.9774 21.5755C78.6027 21.4184 78.2039 21.2008 77.7808 20.9228C77.3699 20.6327 77.0617 20.2762 76.8562 19.8531C76.6507 19.4301 76.548 18.9345 76.548 18.3664C76.548 17.2424 76.9468 16.354 77.7446 15.7013C78.5423 15.0365 79.5032 14.7041 80.6273 14.7041C81.6426 14.7041 82.531 14.9519 83.2925 15.4474C84.0539 15.943 84.6402 16.6259 85.0511 17.4962L83.2925 18.5115C82.7606 17.327 81.8723 16.7347 80.6273 16.7347C80.023 16.7347 79.5395 16.8798 79.1769 17.1698C78.8143 17.4478 78.6329 17.8286 78.6329 18.3121C78.6329 18.7834 78.8143 19.1581 79.1769 19.4361C79.5516 19.7021 80.2224 19.9861 81.1893 20.2883C81.6728 20.4454 82.0233 20.5663 82.2409 20.6509C82.4706 20.7234 82.7848 20.8443 83.1837 21.0135C83.5946 21.1827 83.9029 21.3519 84.1083 21.5211C84.3138 21.6904 84.5314 21.9019 84.761 22.1557C85.0028 22.4095 85.172 22.6996 85.2687 23.026C85.3654 23.3523 85.4137 23.721 85.4137 24.1319C85.4137 25.2802 84.9967 26.1927 84.1627 26.8696C83.3408 27.5344 82.259 27.8668 80.9174 27.8668Z" fill="white"/>
    <path d="M88.028 14.9398H90.113V27.6311H88.028V14.9398Z" fill="white"/>
    <path d="M97.603 27.8668C96.3822 27.8668 95.3428 27.5888 94.4846 27.0328C93.6385 26.4768 93.0463 25.7153 92.7078 24.7484L94.5027 23.6968C95.0104 25.123 96.0619 25.8362 97.6574 25.8362C98.4431 25.8362 99.0293 25.6851 99.4161 25.3829C99.8149 25.0687 100.014 24.6637 100.014 24.1682C100.014 23.6484 99.8029 23.2556 99.3798 22.9897C98.9568 22.7117 98.2074 22.4095 97.1316 22.0832C96.5273 21.9019 96.0378 21.7327 95.6631 21.5755C95.2884 21.4184 94.8895 21.2008 94.4665 20.9228C94.0555 20.6327 93.7473 20.2762 93.5418 19.8531C93.3363 19.4301 93.2336 18.9345 93.2336 18.3664C93.2336 17.2424 93.6325 16.354 94.4302 15.7013C95.2279 15.0365 96.1889 14.7041 97.3129 14.7041C98.3283 14.7041 99.2166 14.9519 99.9781 15.4474C100.74 15.943 101.326 16.6259 101.737 17.4962L99.9781 18.5115C99.4463 17.327 98.5579 16.7347 97.3129 16.7347C96.7086 16.7347 96.2251 16.8798 95.8625 17.1698C95.4999 17.4478 95.3186 17.8286 95.3186 18.3121C95.3186 18.7834 95.4999 19.1581 95.8625 19.4361C96.2372 19.7021 96.908 19.9861 97.875 20.2883C98.3585 20.4454 98.709 20.5663 98.9266 20.6509C99.1562 20.7234 99.4705 20.8443 99.8693 21.0135C100.28 21.1827 100.589 21.3519 100.794 21.5211C100.999 21.6904 101.217 21.9019 101.447 22.1557C101.688 22.4095 101.858 22.6996 101.954 23.026C102.051 23.3523 102.099 23.721 102.099 24.1319C102.099 25.2802 101.682 26.1927 100.848 26.8696C100.026 27.5344 98.9447 27.8668 97.603 27.8668Z" fill="white"/>
</svg>