<svg xmlns="http://www.w3.org/2000/svg" width="77" height="38" viewBox="0 0 77 38" fill="none">
    <g clip-path="url(#clip0_43_1104)">
        <path fill-rule="evenodd" clip-rule="evenodd" d="M0 0H5.22887V28.5461H0V0ZM55.5566 13.6243H60.7855V28.5462H55.5566V13.6243ZM58.1713 9.24498C59.8859 9.24498 61.2757 7.86525 61.2757 6.16332C61.2757 4.46133 59.8859 3.08162 58.1713 3.08162C56.4567 3.08162 55.0664 4.46133 55.0664 6.16332C55.0664 7.86525 56.4567 9.24498 58.1713 9.24498ZM72.3871 9.08291H76.9626V13.6243H72.3871V23.3558H76.9621V28.546H71.0797C68.9139 28.546 67.1581 26.8032 67.1581 24.6534V23.3558V13.6243H63.8905V9.08291H67.1581V3.24367H72.3871V9.08291ZM36.7654 19.1849C36.7654 16.4975 38.9602 14.3191 41.6675 14.3191C44.3748 14.3191 46.5695 16.4975 46.5695 19.1849C46.5695 21.8722 44.3748 24.0507 41.6675 24.0507C38.9602 24.0507 36.7654 21.8722 36.7654 19.1849ZM41.6675 9.12883C36.0723 9.12883 31.5365 13.6311 31.5365 19.1849C31.5365 23.4634 34.2286 27.1179 38.023 28.5706C37.9452 28.6004 37.8677 28.6311 37.7906 28.6628C36.5614 29.1682 35.4446 29.9089 34.5039 30.8427C33.5631 31.7765 32.8169 32.8851 32.3077 34.1051C31.7986 35.3251 31.5365 36.6328 31.5365 37.9534H36.7654C36.7654 37.3144 36.8922 36.6817 37.1386 36.0913C37.3849 35.501 37.746 34.9646 38.2012 34.5127C38.6564 34.0609 39.1968 33.7025 39.7915 33.458C40.3863 33.2134 41.0238 33.0876 41.6675 33.0876C42.3112 33.0876 42.9487 33.2134 43.5434 33.458C44.1382 33.7025 44.6786 34.0609 45.1338 34.5127C45.589 34.9646 45.9501 35.501 46.1964 36.0913C46.4428 36.6817 46.5695 37.3144 46.5695 37.9534H51.7984C51.7984 36.6328 51.5364 35.3251 51.0273 34.1051C50.5181 32.8851 49.7719 31.7765 48.8311 30.8427C47.8904 29.9089 46.7736 29.1682 45.5444 28.6628C45.4673 28.6311 45.3898 28.6004 45.312 28.5706C49.1064 27.1179 51.7984 23.4634 51.7984 19.1849C51.7984 16.9861 51.0874 14.952 49.8813 13.297C51.2078 12.6729 52.1252 11.3315 52.1252 9.77752V9.12877H41.6675V9.12883ZM18.4651 13.6248C20.3744 13.6248 22.0288 14.8527 22.8382 16.6448C22.8823 16.7181 22.9246 16.7926 22.965 16.8683H13.9968C14.7662 14.9556 16.4775 13.6248 18.4651 13.6248ZM22.9654 21.4098L22.9655 21.4098H13.9965C14.7658 23.3228 16.4773 24.6539 18.4651 24.6539C19.822 24.6539 21.0501 24.0338 21.9376 23.0318H27.9727C26.44 26.6527 22.8334 29.1955 18.6285 29.1955C13.0334 29.1955 8.4976 24.6933 8.4976 19.1395C8.4976 13.5857 13.0334 9.08345 18.6285 9.08345C24.2237 9.08345 28.7595 13.5857 28.7595 19.1395C28.7595 19.9202 28.6699 20.6802 28.5002 21.4098H22.9654Z" fill="white"/>
    </g>
    <defs>
        <clipPath id="clip0_43_1104">
            <rect width="77" height="38" fill="white"/>
        </clipPath>
    </defs>
</svg>