<svg xmlns="http://www.w3.org/2000/svg" width="147" height="39" viewBox="0 0 118 31" fill="none">
    <mask id="mask0_44_65" style="mask-type:luminance" maskUnits="userSpaceOnUse" x="0" y="0" width="118" height="31">
        <path d="M118 0H0V31H118V0Z" fill="white"/>
    </mask>
    <g mask="url(#mask0_44_65)">
        <path d="M97.5539 10.0405C98.4107 9.41298 99.5123 9.41298 100.247 10.2915C100.981 11.0446 100.859 12.2996 100.124 13.0527L93.3922 17.5709L100.247 25.9798C100.981 26.8584 100.859 28.1135 100.002 28.741C99.6348 29.1175 99.1451 29.2431 98.7779 29.2431C98.1659 29.2431 97.6762 28.992 97.309 28.49L90.0874 19.579L88.8634 20.4575V27.3605C88.8634 28.49 87.8841 29.3685 86.905 29.3685C85.9257 29.3685 85.069 28.49 85.069 27.3605V1.88259C85.069 0.878545 85.9257 0 86.905 0C88.0066 0 88.8634 0.878545 88.8634 1.88259V15.9393L97.5539 10.0405Z" fill="white"/>
        <path d="M43.8196 11.6722C43.8196 10.6681 44.6765 9.78955 45.778 9.78955C46.7573 9.78955 47.6142 10.5426 47.4917 11.6722V21.4616C47.4917 25.8543 44.0645 29.3686 39.7803 29.3686C35.4963 29.3686 32.0691 25.8543 32.0691 21.4616V11.6722C32.0691 10.6681 32.9259 9.78955 33.9051 9.78955C35.0068 9.78955 35.8635 10.6681 35.8635 11.6722V21.4616C35.8635 23.7208 37.5772 25.6034 39.7803 25.6034C42.1061 25.6034 43.8196 23.7208 43.8196 21.4616V11.6722Z" fill="white"/>
        <path fill-rule="evenodd" clip-rule="evenodd" d="M49.9397 19.7046C49.9397 14.1823 54.2238 9.78955 59.6094 9.78955C64.9952 9.78955 69.0343 14.1823 69.0343 19.7046V27.3604C69.0343 28.49 68.1776 29.3686 67.0759 29.3686C66.3415 29.3686 65.2399 28.49 65.2399 27.3604C63.6487 28.8665 61.8127 29.3686 59.6094 29.3686C54.2238 29.3686 49.9397 25.2269 49.9397 19.7046ZM53.7341 19.7046C53.7341 22.9677 56.427 25.4778 59.6094 25.4778C62.7919 25.4778 65.2399 22.9677 65.2399 19.7046C65.2399 16.4415 62.7919 13.6803 59.6094 13.6803C56.427 13.6803 53.7341 16.4415 53.7341 19.7046Z" fill="white"/>
        <path d="M80.9073 9.78955C75.644 9.78955 71.3599 14.1823 71.3599 19.579V27.486C71.3599 28.49 72.2168 29.4941 73.3183 29.4941C74.2976 29.4941 75.1544 28.6155 75.1544 27.486V19.579C75.1544 16.3159 77.7248 13.5547 81.0297 13.5547C82.1313 13.5547 82.9881 12.6762 82.9881 11.5466C82.8657 10.5426 82.0088 9.78955 80.9073 9.78955Z" fill="white"/>
        <path d="M113.221 17.5708C113.171 17.5708 113.12 17.5493 113.06 17.5241C112.976 17.4883 112.875 17.4453 112.732 17.4453H107.958C106.856 17.4453 105.877 16.4413 105.877 15.1862C105.877 13.9311 106.734 12.927 107.958 12.927H115.424C116.404 12.927 117.26 12.0485 117.26 11.0445C117.26 10.0404 116.404 9.16187 115.424 9.16187H107.958C104.898 9.16187 102.327 11.7975 102.327 15.0606C102.327 18.3239 104.776 20.9595 107.958 20.9595H112.364C113.466 20.9595 114.445 21.9635 114.445 23.2185C114.445 24.4736 113.588 25.4777 112.364 25.4777H104.408C103.429 25.4777 102.572 26.3562 102.572 27.3603C102.572 28.3644 103.429 29.2429 104.408 29.2429H112.364C115.424 29.2429 117.995 26.6072 117.995 23.3441C118.117 20.4575 116.036 18.0728 113.221 17.5708Z" fill="white"/>
        <path d="M-4.76837e-07 14.8097C-4.76837e-07 6.77731 6.36487 0.250977 14.1986 0.250977C22.0322 0.250977 28.3971 6.77731 28.3971 14.9352C28.3971 17.4453 27.7851 19.83 26.6835 21.8381C26.561 20.583 25.4594 19.579 24.1131 19.579H23.8682C24.4803 18.1984 24.8475 16.5669 24.8475 14.9352C24.8475 8.91092 20.0738 4.01617 14.1986 4.01617C8.32329 4.01617 3.54964 8.91092 3.54964 14.9352C3.54964 20.9596 8.32329 25.8543 14.1986 25.8543C15.9121 25.8543 17.6258 25.3523 19.0946 24.5992C19.0946 25.9797 20.3186 27.2349 21.6651 27.2349C19.4618 28.6154 16.8914 29.3684 14.1986 29.3684C6.36487 29.3684 -4.76837e-07 22.8422 -4.76837e-07 14.8097Z" fill="white"/>
        <path d="M25.5819 24.0971V22.0891C25.5819 21.2105 24.9698 20.583 24.113 20.583H21.7874C20.9305 20.583 20.3186 21.2105 20.3186 22.0891V24.4736C20.3186 25.3522 20.9305 25.9797 21.7874 25.9797H23.7458C24.6026 25.9797 25.2146 26.6073 25.2146 27.4858V29.494C25.2146 30.3725 25.8266 31 26.6835 31H29.0091C29.8659 31 30.4779 30.3725 30.4779 29.494V27.1093C30.4779 26.2308 29.8659 25.6032 29.0091 25.6032H27.0507C26.3163 25.6032 25.5819 24.9757 25.5819 24.0971Z" fill="#ED6275"/>
    </g>
</svg>