<svg xmlns="http://www.w3.org/2000/svg" width="160" height="27" viewBox="0 0 160 27" fill="none">
    <g clip-path="url(#clip0_1_363)">
        <path d="M68.0301 21.3749V0H71.3774V21.3749H68.0301Z" fill="white"/>
        <path fill-rule="evenodd" clip-rule="evenodd" d="M53.206 21.2286C54.2272 21.6766 55.4092 21.9006 56.7518 21.9006C58.0945 21.9006 59.2765 21.6766 60.2977 21.2286C61.3188 20.761 62.1793 20.1474 62.879 19.3876C63.5788 18.628 64.1083 17.7709 64.4676 16.8163C64.8269 15.8422 65.0065 14.839 65.0065 13.8066V13.2221C65.0065 12.1897 64.8175 11.1865 64.4393 10.2125C64.0799 9.23844 63.541 8.37157 62.8223 7.61183C62.1037 6.83263 61.2338 6.21898 60.2125 5.77095C59.2102 5.32289 58.0567 5.09888 56.7518 5.09888C55.447 5.09888 54.284 5.32289 53.2627 5.77095C52.2416 6.21898 51.3717 6.83263 50.653 7.61183C49.9533 8.37157 49.4143 9.23844 49.0361 10.2125C48.6767 11.1865 48.4972 12.1897 48.4972 13.2221V13.8066C48.4972 14.839 48.6767 15.8422 49.0361 16.8163C49.3955 17.7709 49.925 18.628 50.6246 19.3876C51.3244 20.1474 52.1848 20.761 53.206 21.2286ZM59.4183 18.2189C58.6807 18.6863 57.792 18.9202 56.7518 18.9202C55.7117 18.9202 54.8229 18.6863 54.0853 18.2189C53.3478 17.7318 52.7805 17.0793 52.3834 16.2611C52.0052 15.443 51.816 14.5273 51.816 13.5144C51.816 12.4819 52.0146 11.5566 52.4117 10.7384C52.8089 9.92025 53.3761 9.27741 54.1137 8.80987C54.8512 8.32287 55.7307 8.07937 56.7518 8.07937C57.773 8.07937 58.6524 8.32287 59.3899 8.80987C60.1274 9.27741 60.6949 9.92025 61.092 10.7384C61.4891 11.5566 61.6876 12.4819 61.6876 13.5144C61.6876 14.5273 61.4891 15.443 61.092 16.2611C60.7137 17.0793 60.1558 17.7318 59.4183 18.2189Z" fill="white"/>
        <path d="M35.4777 20.4982C36.6312 21.3942 38.2387 21.8422 40.3 21.8422C41.586 21.8422 42.7112 21.6378 43.6756 21.2287C44.6591 20.8001 45.425 20.2059 45.9733 19.4463C46.5218 18.6865 46.7959 17.8001 46.7959 16.7872C46.7959 15.3846 46.2854 14.2938 45.2641 13.5145C44.2618 12.7158 42.9003 12.2191 41.1794 12.0243L39.676 11.8782C38.825 11.7808 38.2103 11.5762 37.8321 11.2645C37.454 10.9528 37.2647 10.5243 37.2647 9.97885C37.2647 9.37495 37.5107 8.87821 38.0023 8.48861C38.513 8.09901 39.241 7.9042 40.1865 7.9042C41.1888 7.9042 41.9453 8.10874 42.4559 8.51782C42.9664 8.92691 43.2407 9.4334 43.2785 10.0373H46.3137C46.276 8.43991 45.6992 7.23213 44.5834 6.41395C43.4676 5.57631 42.002 5.15747 40.1865 5.15747C39.0141 5.15747 37.9739 5.35228 37.0662 5.74188C36.1774 6.1315 35.4777 6.68667 34.967 7.40744C34.4565 8.12822 34.2011 9.01457 34.2011 10.0665C34.2011 11.3912 34.6551 12.4431 35.5628 13.2223C36.4894 14.0015 37.7375 14.4788 39.3072 14.6541L40.8107 14.8002C41.8697 14.917 42.6166 15.1509 43.0516 15.5015C43.5055 15.8326 43.7323 16.2905 43.7323 16.8748C43.7323 17.5177 43.4298 18.0534 42.8247 18.482C42.2195 18.9105 41.3875 19.1248 40.3283 19.1248C39.0802 19.1248 38.182 18.8812 37.6335 18.3943C37.0852 17.9073 36.7921 17.3716 36.7542 16.7872H33.6906C33.7473 18.3652 34.3431 19.6021 35.4777 20.4982Z" fill="white"/>
        <path d="M75.0562 5.625V21.3748H78.3751V5.625H75.0562Z" fill="white"/>
        <path fill-rule="evenodd" clip-rule="evenodd" d="M88.8248 21.9008C87.728 21.9008 86.7257 21.6963 85.818 21.2871C84.9292 20.878 84.1443 20.3034 83.4635 19.5632C82.8016 18.8229 82.2911 17.9658 81.9317 16.9917C81.5725 16.0177 81.3928 14.956 81.3928 13.8068V13.2516C81.3928 12.1217 81.5629 11.0698 81.9033 10.0958C82.2627 9.10228 82.7638 8.23541 83.4068 7.49517C84.0497 6.75491 84.8157 6.18024 85.7045 5.77115C86.6123 5.34258 87.6144 5.1283 88.7114 5.1283C89.8839 5.1283 90.9334 5.39128 91.86 5.91725C92.7141 6.37469 93.4137 7.0625 93.9592 7.98068V0H97.2782V21.3749H94.6401V18.1558C94.553 18.3506 94.4585 18.5372 94.3564 18.7158C93.7512 19.8067 92.9663 20.6151 92.0019 21.1411C91.0374 21.6475 89.9784 21.9008 88.8248 21.9008ZM89.4489 18.9495C90.2999 18.9495 91.0658 18.7547 91.7466 18.3652C92.4464 17.9755 93.0042 17.4106 93.4203 16.6704C93.8552 15.9106 94.0726 15.0242 94.0726 14.0113V12.7548C94.0726 11.7613 93.8552 10.914 93.4203 10.2127C92.9853 9.51137 92.418 8.97566 91.7182 8.60553C91.0186 8.23541 90.2526 8.05035 89.4205 8.05035C88.4939 8.05035 87.6713 8.28411 86.9526 8.75164C86.2529 9.19967 85.7045 9.8328 85.3073 10.651C84.9102 11.4691 84.7117 12.4236 84.7117 13.5146C84.7117 14.625 84.9102 15.5893 85.3073 16.4074C85.7234 17.2256 86.2907 17.8587 87.0094 18.3067C87.728 18.7353 88.5412 18.9495 89.4489 18.9495Z" fill="white"/>
        <path fill-rule="evenodd" clip-rule="evenodd" d="M102.85 26.9999H107.177C109.07 26.9999 110.897 26.832 112.072 26.4011C113.247 25.9702 114.374 25.3097 114.96 24.1214C115.565 22.9526 115.868 21.4137 115.868 19.5046V5.62493H113.23V8.6957C113.185 8.59552 113.137 8.49725 113.088 8.40087C112.539 7.32946 111.783 6.52102 110.819 5.97557C109.873 5.41065 108.776 5.12817 107.528 5.12817C106.45 5.12817 105.457 5.32297 104.55 5.7126C103.661 6.1022 102.895 6.65739 102.252 7.37816C101.609 8.07944 101.108 8.90734 100.748 9.86189C100.408 10.8164 100.238 11.8489 100.238 12.9592V13.5144C100.238 14.6053 100.408 15.6378 100.748 16.6118C101.089 17.5663 101.571 18.4137 102.195 19.154C102.819 19.8942 103.566 20.4688 104.436 20.8779C105.306 21.287 106.271 21.4916 107.33 21.4916C108.502 21.4916 109.542 21.2286 110.45 20.7027C111.376 20.1766 112.114 19.3974 112.662 18.3651C112.673 18.3465 112.683 18.3278 112.693 18.3091L112.719 18.2593V19.6799C112.719 20.8488 112.53 21.7935 112.152 22.5144C111.793 23.2546 111.145 23.6029 110.45 23.8094C109.62 24.0559 107.177 24.1214 107.177 24.1214H102.85V26.9999ZM110.421 17.8975C109.741 18.2676 108.984 18.4527 108.152 18.4527C107.263 18.4527 106.469 18.2481 105.769 17.839C105.089 17.4105 104.55 16.8065 104.152 16.0273C103.755 15.2287 103.557 14.2937 103.557 13.2222C103.557 12.1703 103.746 11.2547 104.124 10.4755C104.521 9.67682 105.07 9.0632 105.769 8.63463C106.469 8.18658 107.273 7.96256 108.18 7.96256C108.975 7.96256 109.712 8.13787 110.393 8.48854C111.074 8.83917 111.622 9.3554 112.038 10.0372C112.473 10.6995 112.691 11.5177 112.691 12.4917V13.6897C112.691 14.6832 112.483 15.5403 112.067 16.2612C111.67 16.9625 111.121 17.5078 110.421 17.8975Z" fill="white"/>
        <path fill-rule="evenodd" clip-rule="evenodd" d="M128.937 21.3748V18.3484C128.81 18.7593 128.649 19.1349 128.454 19.4755C128.038 20.2157 127.452 20.7903 126.696 21.1994C125.958 21.5891 125.05 21.7838 123.972 21.7838C122.857 21.7838 121.883 21.5891 121.051 21.1994C120.219 20.7903 119.576 20.2059 119.122 19.4462C118.668 18.667 118.441 17.7417 118.441 16.6703C118.441 15.5404 118.696 14.6054 119.207 13.8651C119.736 13.1249 120.483 12.5697 121.448 12.1995C122.412 11.8294 123.566 11.6443 124.909 11.6443H128.398V11.3522C128.398 10.3781 128.152 9.63791 127.66 9.13141C127.168 8.62492 126.44 8.37168 125.476 8.37168C124.946 8.37168 124.36 8.38141 123.717 8.4009C123.074 8.42038 122.441 8.4496 121.817 8.48857C121.212 8.50804 120.672 8.53727 120.2 8.57622V5.62496C120.616 5.586 121.07 5.55677 121.561 5.5373C122.072 5.49834 122.592 5.46911 123.122 5.44965C123.67 5.43016 124.19 5.42041 124.682 5.42041C126.232 5.42041 127.518 5.62496 128.54 6.03404C129.561 6.44313 130.317 7.09572 130.809 7.99181C131.32 8.86844 131.575 10.047 131.575 11.5275V21.3748H128.937ZM128.398 13.8943V15.5307C128.36 16.4852 128.161 17.2255 127.802 17.7514C127.462 18.2774 127.027 18.6572 126.497 18.8911C125.968 19.1054 125.41 19.2124 124.824 19.2124C123.821 19.2124 123.055 18.9787 122.526 18.5111C121.996 18.0241 121.731 17.3813 121.731 16.5825C121.731 15.7839 121.996 15.141 122.526 14.654C123.055 14.1476 123.821 13.8943 124.824 13.8943H128.398Z" fill="white"/>
        <path d="M137.406 21.0241C138.276 21.3749 139.344 21.5502 140.61 21.5502H142.908V18.5697H140.356C139.581 18.5697 138.975 18.3554 138.54 17.9269C138.124 17.4788 137.916 16.8458 137.916 16.0275V8.16723H142.908V5.62506H137.916V1.125H134.768V15.7354C134.768 17.1963 134.985 18.3554 135.42 19.2125C135.874 20.0697 136.536 20.6736 137.406 21.0241Z" fill="white"/>
        <path fill-rule="evenodd" clip-rule="evenodd" d="M152.235 21.9006C150.911 21.9006 149.757 21.6669 148.775 21.1993C147.791 20.7317 146.988 20.1182 146.363 19.3584C145.74 18.5792 145.267 17.7124 144.945 16.7578C144.642 15.7838 144.49 14.7903 144.49 13.7773V13.2221C144.49 12.1897 144.642 11.1962 144.945 10.2417C145.267 9.26766 145.74 8.40079 146.363 7.64107C146.988 6.86185 147.773 6.24822 148.717 5.80017C149.682 5.33265 150.798 5.09888 152.065 5.09888C153.71 5.09888 155.082 5.469 156.178 6.20925C157.275 6.94952 158.097 7.91378 158.646 9.10208C159.195 10.2709 159.469 11.5371 159.469 12.9007V14.2741H147.669C147.729 15.0264 147.881 15.7179 148.122 16.3487C148.444 17.1669 148.945 17.8195 149.625 18.3065C150.306 18.7741 151.177 19.0078 152.235 19.0078C153.295 19.0078 154.164 18.7741 154.845 18.3065C155.526 17.8195 155.942 17.2546 156.093 16.6117H159.185C158.977 17.6831 158.552 18.6181 157.909 19.4169C157.284 20.2156 156.49 20.8292 155.526 21.2578C154.561 21.6863 153.465 21.9006 152.235 21.9006ZM148.122 10.6215C147.961 11.0327 147.84 11.4807 147.76 11.9657H156.246C156.17 11.3954 156.034 10.8792 155.837 10.417C155.516 9.63777 155.044 9.04365 154.419 8.63455C153.796 8.20599 153.01 7.9917 152.065 7.9917C151.081 7.9917 150.259 8.22548 149.597 8.69298C148.935 9.16052 148.444 9.80336 148.122 10.6215Z" fill="white"/>
        <path d="M75.0562 0V3.4425H78.3751V0H75.0562Z" fill="white"/>
        <path d="M26.9525 0H0V27H26.9525V0Z" fill="#4DF987"/>
        <path d="M16.8453 10.125H10.1072V5.625H21.3374V16.875H16.8453V10.125Z" fill="black"/>
        <path d="M16.8453 21.375V16.875H10.1072V10.125H5.6151V21.375H16.8453Z" fill="black"/>
    </g>
    <defs>
        <clipPath id="clip0_1_363">
            <rect width="159.469" height="27" fill="white"/>
        </clipPath>
    </defs>
</svg>