<svg xmlns="http://www.w3.org/2000/svg" width="209" height="24" viewBox="0 0 177 22" fill="none">
    <path d="M0 1.11206H4.84747V10.5706C4.84747 11.4681 4.91673 12.2966 5.12447 13.0561C5.33222 13.8155 5.67847 14.4369 6.16322 14.9202C6.64797 15.4724 7.27121 15.8868 8.10221 16.163C8.9332 16.4391 9.90269 16.5772 11.0799 16.5772C11.6339 16.5772 12.1879 16.5081 12.8112 16.3701C13.3652 16.2319 13.9192 16.0939 14.4731 15.8868C15.0272 15.6797 15.512 15.4035 15.9275 15.1273C16.4121 14.8511 16.7585 14.5059 17.1047 14.1608V1.11206H21.9521V20.5125H17.1047V18.8555C15.9275 19.5459 14.6809 20.0983 13.5037 20.3744C12.3264 20.6505 11.1492 20.8577 10.0412 20.8577C8.2407 20.8577 6.71721 20.6505 5.47073 20.2363C4.15498 19.753 3.11623 19.1317 2.35448 18.3032C1.52349 17.4746 0.969495 16.5081 0.553997 15.2653C0.207748 14.0917 0 12.7799 0 11.261V1.11206Z" fill="#FBB811"/>
    <path d="M26.8007 1.11308H31.6481V2.77006C32.9639 2.0106 34.2104 1.52732 35.3876 1.25116C36.5649 0.974995 37.7421 0.836914 38.8501 0.836914C40.3044 0.836914 41.6893 1.04404 43.0051 1.45828C44.2516 1.87252 45.3596 2.56293 46.2598 3.39141C47.16 4.2199 47.9218 5.32455 48.4066 6.56729C48.9606 7.81001 49.1683 9.32891 49.1683 10.9859V20.5135H44.3208V11.7453C44.3208 10.7097 44.1824 9.74315 43.8361 8.91467C43.6283 8.08617 43.2128 7.32673 42.5896 6.7744C42.0356 6.22208 41.3431 5.73879 40.5121 5.46263C39.6811 5.18648 38.7808 4.97935 37.8114 4.97935C37.2573 4.97935 36.7726 5.04839 36.2186 5.11742C35.6646 5.25551 35.1107 5.39359 34.5566 5.60072C34.0027 5.80783 33.5179 6.08399 33.0332 6.36016C32.5484 6.70536 32.0636 7.05056 31.7174 7.39577V20.5135H26.87V1.11308H26.8007Z" fill="#FBB811"/>
    <path d="M54.0143 1.11206H58.8617V20.5125H54.0143V1.11206Z" fill="#FBB811"/>
    <path d="M61.0775 1.11206H66.756L71.8112 12.7799L73.1269 16.0248L74.4427 12.7799L79.4979 1.11206H85.1763L75.9662 20.5125H70.357L61.0775 1.11206Z" fill="#FBB811"/>
    <path d="M86.2865 10.7084C86.2865 9.39661 86.5636 8.15388 87.1175 6.91115C87.6715 5.73747 88.4333 4.63281 89.472 3.73529C90.5107 2.83776 91.688 2.07832 93.2115 1.526C94.6657 0.973672 96.3277 0.69751 98.1974 0.69751C100.067 0.69751 101.729 0.973672 103.183 1.526C104.707 2.07832 105.953 2.83776 106.992 3.80433C108.031 4.7709 108.862 5.87555 109.416 7.18732C109.97 8.49908 110.247 9.87989 110.247 11.3988C110.247 11.6059 110.247 11.813 110.247 12.0201C110.247 12.2273 110.247 12.4344 110.178 12.5725H91.7572C91.965 13.1248 92.3112 13.6771 92.796 14.1604C93.2807 14.6437 93.8347 15.0579 94.5272 15.4031C95.2198 15.7483 96.0506 16.0244 96.9509 16.2317C97.8512 16.4388 98.8899 16.5077 99.9979 16.5077C101.106 16.5077 102.214 16.3697 103.322 16.1626C104.43 15.9555 105.469 15.6102 106.507 15.265L108.169 18.9932C107.546 19.2694 106.854 19.5456 106.23 19.7527C105.607 19.9598 104.915 20.167 104.153 20.305C103.46 20.443 102.699 20.5812 101.937 20.6503C101.175 20.7192 100.344 20.7883 99.5132 20.7883C97.2972 20.7883 95.4275 20.5121 93.7654 20.0288C92.1034 19.4765 90.7185 18.7861 89.6105 17.8886C88.5026 16.991 87.6715 15.8864 87.1175 14.7128C86.5636 13.47 86.2865 12.1582 86.2865 10.7084ZM104.984 8.84428C104.776 8.29197 104.568 7.80867 104.153 7.3254C103.807 6.84212 103.322 6.42788 102.768 6.08267C102.214 5.73747 101.591 5.46131 100.829 5.25418C100.136 5.04707 99.3054 4.97801 98.4053 4.97801C97.505 4.97801 96.674 5.1161 95.9122 5.32322C95.1505 5.53034 94.458 5.80651 93.904 6.15171C93.3499 6.49691 92.8653 6.91115 92.4498 7.39443C92.1034 7.87772 91.8265 8.361 91.6188 8.84428H104.984Z" fill="#FBB811"/>
    <path d="M114.057 1.11233H118.905V3.87395C120.013 3.04547 121.121 2.35506 122.298 1.80273C123.475 1.25041 124.722 0.767129 125.899 0.490967L127.353 4.9786C125.483 5.18572 123.821 5.59996 122.367 6.22133C120.913 6.8427 119.805 7.80927 118.905 8.98295V20.5127H114.057V1.11233Z" fill="#FBB811"/>
    <path d="M130.464 14.5746C131.781 15.3341 133.235 15.9555 134.827 16.3006C136.42 16.6459 138.013 16.853 139.675 16.853C140.782 16.853 141.753 16.7839 142.445 16.6459C143.207 16.5077 143.761 16.3006 144.245 16.0244C144.73 15.8173 145.008 15.5412 145.215 15.196C145.423 14.9199 145.491 14.5746 145.491 14.2295C145.491 13.7462 145.284 13.401 144.869 13.0557C144.454 12.7106 143.83 12.5725 142.861 12.5725C142.446 12.5725 141.96 12.5725 141.475 12.6415C140.991 12.7106 140.436 12.7797 139.952 12.8486C139.398 12.9177 138.844 12.9868 138.22 12.9868C137.666 13.0557 137.044 13.0557 136.42 13.0557C135.104 13.0557 133.997 12.9177 133.028 12.6415C132.127 12.3654 131.365 11.9511 130.742 11.4678C130.188 10.9845 129.703 10.3632 129.495 9.74181C129.288 9.12045 129.08 8.361 129.08 7.53252C129.08 6.56595 129.288 5.66843 129.773 4.7709C130.257 3.94242 130.881 3.25201 131.781 2.63065C132.611 2.00928 133.65 1.526 134.897 1.18079C136.144 0.835591 137.459 0.69751 138.982 0.69751C139.745 0.69751 140.575 0.76655 141.406 0.835591C142.237 0.904631 143.068 1.04271 143.9 1.18079C144.73 1.31887 145.491 1.526 146.254 1.73311C147.016 1.94024 147.708 2.14735 148.262 2.35448L146.808 6.22075C145.561 5.73747 144.315 5.39227 143.068 5.1161C141.822 4.83994 140.575 4.70186 139.259 4.70186C138.359 4.70186 137.598 4.7709 136.974 4.90898C136.351 5.04706 135.797 5.25418 135.451 5.46131C135.036 5.66843 134.758 5.94458 134.551 6.22075C134.343 6.49691 134.273 6.84212 134.273 7.11828C134.273 7.3254 134.343 7.53252 134.412 7.73965C134.482 7.94676 134.689 8.08484 134.897 8.22293C135.104 8.361 135.382 8.49909 135.727 8.56813C136.073 8.63717 136.49 8.70621 136.974 8.70621C137.459 8.70621 137.944 8.70621 138.428 8.63717C138.913 8.56813 139.467 8.49909 140.021 8.43004C140.575 8.361 141.129 8.29197 141.753 8.29197C142.375 8.22293 142.929 8.22293 143.622 8.22293C144.8 8.22293 145.838 8.361 146.669 8.63717C147.57 8.91333 148.262 9.32757 148.816 9.81085C149.37 10.2941 149.785 10.9155 150.132 11.5369C150.409 12.2273 150.547 12.9177 150.547 13.7462C150.547 14.7817 150.339 15.6793 149.854 16.5768C149.37 17.4744 148.677 18.2337 147.777 18.8552C146.877 19.4765 145.7 20.0288 144.315 20.3741C142.929 20.7192 141.336 20.9264 139.467 20.9264C138.359 20.9264 137.251 20.8574 136.212 20.7192C135.173 20.5812 134.204 20.3741 133.235 20.167C132.265 19.9598 131.435 19.6837 130.603 19.3385C129.773 18.9932 129.01 18.6481 128.319 18.3028L130.464 14.5746Z" fill="#FBB811"/>
    <path d="M152.766 10.7084C152.766 9.39661 153.043 8.15388 153.596 6.91115C154.15 5.73746 154.913 4.63281 155.951 3.73529C156.99 2.83776 158.168 2.07832 159.691 1.526C161.145 0.973672 162.807 0.69751 164.677 0.69751C166.547 0.69751 168.209 0.973672 169.663 1.526C171.186 2.07832 172.432 2.83776 173.471 3.80433C174.51 4.7709 175.341 5.87555 175.895 7.18732C176.45 8.49908 176.726 9.87989 176.726 11.3988C176.726 11.6059 176.726 11.813 176.726 12.0201C176.726 12.2273 176.726 12.4344 176.657 12.5725H158.237C158.444 13.1248 158.791 13.6771 159.276 14.1604C159.76 14.6437 160.314 15.0579 161.006 15.4031C161.699 15.7483 162.531 16.0244 163.431 16.2315C164.331 16.4388 165.369 16.5077 166.477 16.5077C167.586 16.5077 168.694 16.3697 169.802 16.1626C170.909 15.9555 171.948 15.6102 172.986 15.265L174.649 18.9932C174.025 19.2694 173.333 19.5456 172.71 19.7527C172.086 19.9598 171.395 20.167 170.632 20.305C169.94 20.443 169.178 20.5812 168.416 20.6503C167.655 20.7192 166.823 20.7883 165.993 20.7883C163.777 20.7883 161.907 20.5121 160.245 20.0288C158.583 19.4765 157.198 18.7861 156.09 17.8886C154.982 16.991 154.15 15.8864 153.596 14.7128C153.043 13.47 152.766 12.1582 152.766 10.7084ZM171.463 8.84428C171.256 8.29197 171.048 7.80867 170.632 7.3254C170.285 6.84212 169.802 6.42786 169.248 6.08266C168.694 5.73746 168.07 5.46131 167.308 5.25418C166.616 5.04707 165.785 4.97801 164.885 4.97801C163.985 4.97801 163.153 5.1161 162.392 5.32322C161.63 5.53034 160.938 5.80651 160.384 6.15171C159.83 6.49691 159.345 6.91115 158.929 7.39443C158.583 7.87771 158.305 8.361 158.098 8.84428H171.463Z" fill="#FBB811"/>
</svg>